<svg xmlns="http://www.w3.org/2000/svg" data-name="Layer 1" width="689.67004" height="573.44613" viewBox="0 0 689.67004 573.44613" xmlns:xlink="http://www.w3.org/1999/xlink"><polygon points="185.195 538.856 196.822 542.91 217.993 499.993 200.833 494.009 185.195 538.856" fill="#a0616a"/><path d="M455.49033,708.58364l2.74893-7.88212-3.1217-.87926-12.69937-3.60221-2.94131-.82738-11.408,25.63044-.61151,1.37412,8.25554,2.87916.75552-1.31286,3.42692-5.97008.86794,7.46794.188,1.64191,21.88712,7.63324a5.23751,5.23751,0,0,0,6.63125-3.21008C471.89823,727.53412,456.94941,711.8594,455.49033,708.58364Z" transform="translate(-255.16498 -163.27693)" fill="#2f2e41"/><polygon points="102.968 547.942 115.281 547.942 121.139 500.446 102.965 500.447 102.968 547.942" fill="#a0616a"/><path d="M374.54347,712.32748v-8.34772l-3.23713.19776-13.17727.78065-3.04972.18735-2.33152,27.95757-.12489,1.49885h8.74319l.281-1.48843,1.26982-6.76559,3.27874,6.76559.7182,1.48843h23.18a5.23753,5.23753,0,0,0,5.20431-5.21473C396.27665,724.81782,376.99988,714.94006,374.54347,712.32748Z" transform="translate(-255.16498 -163.27693)" fill="#2f2e41"/><path d="M446.00859,413.18366l19.33866,25.63164s-10.68-.741,0,3.90146,10.9827,3.002,10.83133,8.62823-11.0385,4.78531-5.59494,10.54577,41.90686,82.34507,41.90686,82.34507S482.61179,655.11537,478.7855,659.639s-8.09827.25163-3.82628,4.52362,9.612-1.068,4.272,4.272-12.66459,14.7635-12.66459,14.7635l-21.5113-3.01554s-23.49593-22.42793,13.884-59.80782c0,0,9.41014-37.3967,5.23907-37.38829s-4.17108,6.038-4.17108-6.05479V564.83891l-49.50158-92.73559s-31.59048-24.64324-31.09433-35.90761S446.00859,413.18366,446.00859,413.18366Z" transform="translate(-255.16498 -163.27693)" fill="#2f2e41"/><path d="M410.87941,438.8153S433.30734,552.023,430.10335,555.22694s-3.204,11.2434-3.204,11.2434L375.63552,680.18256l-20.29194,1.068c-.47917-32.53368-.61117-57.21129,17.088-80.09976l8.544-167.67548Z" transform="translate(-255.16498 -163.27693)" fill="#2f2e41"/><path d="M439.99665,304.43308l-24.443-19.29713h0l-12.83089-.746-19.03888,12.19676-4.66195,23.78357-11.02559,26.78212,16.17149,72.27649s1.51672,5.18643-2.45783,5.8094-3.498,8.268-3.498,8.268.80937,6.62574-3.05006,7.20921-14.15068.58348-5.14535,12.16175,80.23195-32.21272,80.23195-32.21272l10.34516-54.28176s20.06277-26.94681-1.54329-42.37971Z" transform="translate(-255.16498 -163.27693)" fill="#e6e6e6"/><path d="M333.29139,468.534a11.78082,11.78082,0,0,1,3.55509-17.71124L367.592,347.64138l19.2249,9.67893-33.48246,98.8983a11.8447,11.8447,0,0,1-20.043,12.31543Z" transform="translate(-255.16498 -163.27693)" fill="#a0616a"/><path d="M388.0991,295.632s-5.49565-2.92071-9.25466,9.718c-3.00937,10.11824-27.42849,70.38686-27.73994,85.03978a9.25491,9.25491,0,0,0-7.328,8.66241l30.19207,4.046c5.2758-4.44981,6.6599-10.45984,4.61865-12.24361l6.55535-17.904L412.491,315.98629,392.1091,297.6727Z" transform="translate(-255.16498 -163.27693)" fill="#e6e6e6"/><path d="M549.42459,434.6183A11.78083,11.78083,0,0,0,538.56,420.18612l-70.52954-80.55044-14.96129,17.85216,72.95768,74.69355a11.84469,11.84469,0,0,0,23.39773,2.43691Z" transform="translate(-255.16498 -163.27693)" fill="#a0616a"/><path d="M425.23641,302.42037s3.69217-5.01,12.547,4.76022c7.089,7.82185,55.16948,51.60388,61.78685,64.68118a9.25488,9.25488,0,0,1,10.35338,4.64161l-25.47335,16.70447c-6.68128-1.73074-10.52825-6.55121-9.45911-9.04229l-13.65314-13.3085-49.29284-39.53593,10.458-25.32666Z" transform="translate(-255.16498 -163.27693)" fill="#e6e6e6"/><circle cx="409.2648" cy="247.14773" r="27.73045" transform="translate(-224.57925 375.73008) rotate(-68.74955)" fill="#a0616a"/><path d="M442.39555,221.72893a11.27034,11.27034,0,0,0-13.38953-2.37372q.83709-4.67467,1.67409-9.3494-6.95583-1.06472-13.91159-2.12948c-6.99589-1.07086-14.20474-2.13469-21.08466-.47448a27.93231,27.93231,0,0,0-20.2407,20.55841,19.36091,19.36091,0,0,0-30.18786,17.23612c.33336,5.31782,2.82005,10.22477,4.35882,15.326,5.84725,19.38514-3.83688,42.26663-21.82366,51.56448,5.79308,4.39453,11.77579,8.88456,18.791,10.797,7.01531,1.91247,15.40147.65543,20.02148-4.9595,2.36362-2.87259,3.50437-6.53066,4.59231-10.088q6.59816-21.57472,13.19632-43.14951l7.11139,12.83943c2.271,3.17531,1.45814,7.619-.17782,11.16345-1.636,3.54452-4.01268,6.826-4.745,10.66054s.9695,8.58615,4.78024,9.43343c5.1486-12.1119,10.40762-25.01846,8.41034-38.02679-.77733-5.06275-2.63948-10.25509-1.17659-15.16387,1.13038-3.79313,4.12284-6.7781,7.44742-8.92576a29.88284,29.88284,0,0,1,11.47966-4.39506c9.03815-1.43753,20.28783.49306,25.593-6.96408A11.27038,11.27038,0,0,0,442.39555,221.72893Z" transform="translate(-255.16498 -163.27693)" fill="#2f2e41"/><circle cx="169.60115" cy="206.71879" r="23.48423" fill="#007dff"/><path d="M430.24824,358.17818a6.45716,6.45716,0,0,0,.55607,1.46835,3.05618,3.05618,0,0,0,2.55052,1.92385,1.41945,1.41945,0,0,0,.27937-.04027c1.004-.24762,1.61648-1.46371,1.62653-2.98268a6.45759,6.45759,0,0,0-.19044-1.55853,6.3125,6.3125,0,0,0-.5494-1.45411c-.71368-1.34683-1.82662-2.14692-2.83358-1.89857C430.35367,353.96514,429.71089,355.99941,430.24824,358.17818Z" transform="translate(-255.16498 -163.27693)" fill="#fff"/><path d="M432.05832,359.63928a3.37834,3.37834,0,0,0,1.29651,1.9311,1.41945,1.41945,0,0,0,.27937-.04027c1.004-.24762,1.61648-1.46371,1.62653-2.98268a6.45759,6.45759,0,0,0-.19044-1.55853,6.3125,6.3125,0,0,0-.5494-1.45411A3.39287,3.39287,0,0,0,432.05832,359.63928Z" transform="translate(-255.16498 -163.27693)" fill="#3f3d56"/><path d="M420.25952,360.64173c.51591,2.09184,1.93294,3.55769,3.22491,3.38212a1.41577,1.41577,0,0,0,.161-.03019c1.33064-.32818,1.97344-2.36246,1.43609-4.54121a6.28677,6.28677,0,0,0-.54865-1.4511c-.71441-1.34984-1.82735-2.14993-2.83433-1.90158C420.365,356.42869,419.72216,358.463,420.25952,360.64173Z" transform="translate(-255.16498 -163.27693)" fill="#fff"/><path d="M422.1685,362.07844a3.37927,3.37927,0,0,0,1.31593,1.94541,1.41577,1.41577,0,0,0,.161-.03019c1.33064-.32818,1.97344-2.36246,1.43609-4.54121a6.28677,6.28677,0,0,0-.54865-1.4511A3.3927,3.3927,0,0,0,422.1685,362.07844Z" transform="translate(-255.16498 -163.27693)" fill="#3f3d56"/><path d="M440.04379,367.52536c1.42875,5.793-.83451,11.33306-5.05515,12.374s-8.80037-2.81137-10.22912-8.6044C429.96806,372.60254,435.06634,371.42522,440.04379,367.52536Z" transform="translate(-255.16498 -163.27693)" fill="#fff"/><path d="M401.967,375.66412a23.49265,23.49265,0,0,1,9.72653-25.13774,23.48634,23.48634,0,0,0,30.77529,34.94084,23.47833,23.47833,0,0,1-40.50182-9.8031Z" transform="translate(-255.16498 -163.27693)" opacity="0.2"/><path d="M935.47506,719.39011a2.26934,2.26934,0,0,1-1.64468-3.93333l.15549-.61819q-.0307-.07426-.06178-.14839a6.09416,6.09416,0,0,0-11.24139.04177c-1.83858,4.42817-4.17942,8.86389-4.75579,13.54594a18.029,18.029,0,0,0,.31648,6.20047,72.28153,72.28153,0,0,1-6.57515-30.02077,69.76621,69.76621,0,0,1,.43275-7.783q.3585-3.17781.99471-6.31034a73.11882,73.11882,0,0,1,14.50011-30.98961,19.45891,19.45891,0,0,0,8.09295-8.39652,14.84318,14.84318,0,0,0,1.34992-4.05618c-.394.05168-1.48556-5.94866-1.18841-6.3168-.54905-.83317-1.53177-1.24733-2.13143-2.06034-2.98233-4.04341-7.0912-3.33741-9.23621,2.15727-4.58224,2.31266-4.62659,6.14805-1.81495,9.83683,1.78878,2.34681,2.03456,5.52232,3.60408,8.03478-.1615.2067-.32944.40695-.4909.61366a73.59073,73.59073,0,0,0-7.681,12.16859,30.59233,30.59233,0,0,0-1.82641-14.20959c-1.74819-4.21731-5.0249-7.76915-7.91045-11.415a6.27921,6.27921,0,0,0-11.184,3.08333q-.00887.08062-.01731.16119.64288.36267,1.25863.76992a3.0782,3.0782,0,0,1-1.24106,5.60174l-.06277.00968a30.62792,30.62792,0,0,0,.80734,4.57937c-3.70179,14.31579,4.29011,19.5299,15.70147,19.76413.25191.12916.49738.25832.74929.38108a75.11519,75.11519,0,0,0-4.04327,19.02779,71.24458,71.24458,0,0,0,.05168,11.50323l-.01939-.13562A18.82556,18.82556,0,0,0,903.937,699.607c-4.9456-4.06264-11.93282-5.55869-17.26825-8.82425a3.533,3.533,0,0,0-5.41122,3.43708l.02182.14261a20.67541,20.67541,0,0,1,2.31871,1.11733q.6429.36276,1.25864.76992a3.07824,3.07824,0,0,1-1.24107,5.6018l-.06282.00964c-.0452.00646-.084.013-.12911.01944a30.65462,30.65462,0,0,0,5.63854,8.82922c2.31463,12.49713,12.256,13.68283,22.89022,10.04354h.00649a75.09278,75.09278,0,0,0,5.04439,14.72621H935.0235c.06463-.20022.12274-.40693.18089-.60718a20.47427,20.47427,0,0,1-4.98629-.297c1.337-1.64059,2.674-3.29409,4.011-4.93462a1.11929,1.11929,0,0,0,.084-.0969c.67817-.83959,1.36282-1.67282,2.041-2.51245l.00036-.001a29.99051,29.99051,0,0,0-.87876-7.63985Z" transform="translate(-255.16498 -163.27693)" fill="#f2f2f2"/><path d="M255.165,735.53306a1.18647,1.18647,0,0,0,1.19006,1.19h687.29a1.19,1.19,0,0,0,0-2.38H256.355A1.18651,1.18651,0,0,0,255.165,735.53306Z" transform="translate(-255.16498 -163.27693)" fill="#ccc"/><polygon points="486.962 555.88 472.455 555.879 465.554 499.923 486.965 499.925 486.962 555.88" fill="#ffb6b6"/><path d="M742.63752,734.29068,698.027,734.289v-.56411a17.36464,17.36464,0,0,1,17.36368-17.36341h.00107l8.14867-6.182,15.20364,6.183,3.89423.00009Z" transform="translate(-255.16498 -163.27693)" fill="#2f2e41"/><polygon points="550.243 555.88 535.737 555.879 528.836 499.923 550.246 499.925 550.243 555.88" fill="#ffb6b6"/><path d="M805.91906,734.29068l-44.61057-.0017v-.56411a17.36463,17.36463,0,0,1,17.36368-17.36341h.00107l8.14867-6.182,15.20364,6.183,3.89422.00009Z" transform="translate(-255.16498 -163.27693)" fill="#2f2e41"/><path d="M706.00614,414.2697s-13.95768,42.86863-11.38136,48.51084,6.97188,1.24665,2.57632,5.64221-8.23264-.27689-4.11632,7.18749,10.35241,68.91369,13.09511,71.88833,6.51376,3.05444,3.163,5.94491-7.74628-2.97028-3.35071,2.89047,16.05936,141.06172,16.05936,141.06172h22.78533s5.67494-6.54143,2.46255-10.79855.282-5.89808,0-8.74056.78643-8.971.9848-11.76749,4.0491-69.417-5.2022-107.90088L759.95166,484.911l20.43477,88.56524s-9.39994,74.28764,0,98.169c0,0-7.57843,6.31068-4.2174,9.96788s6.29141.72683,3.361,3.6572,4.39556,13.18668,4.39556,13.18668l24.90817-1.46519,14.0981-138.80368s2.3766-14.47561,0-16.95605-2.37661,6.31069-2.37661-2.48043V527.03022s-1.37658-72.09411-1.56013-76.33969-17.7658-35.0145-17.7658-35.0145Z" transform="translate(-255.16498 -163.27693)" fill="#2f2e41"/><path d="M706.214,266.20693v84.53a81.24921,81.24921,0,0,1,4.17,25.38c-.09,14.37-3.25,30.93-3.24,38.17a9.45677,9.45677,0,0,0,.31,2.85c13.99,40.55,88.02,3.7,94.75.25.32-.16.49-.25.49-.25l-1.46-45.42.25-13.06,1.73-89.59-1.55-1.24-13.58-10.83-1.33-1.06-4.08,5.95-36.37-2.5-13.88-3.84-4.33,1.76-19.52,7.94Z" transform="translate(-255.16498 -163.27693)" fill="#007dff"/><path d="M684.67884,436.28211l4.78142-26.415,15.47083.62608-6.0489,27.74767a8.98633,8.98633,0,1,1-14.20335-1.95879Z" transform="translate(-255.16498 -163.27693)" fill="#ffb6b6"/><path d="M708.58933,266.02691h0c7.95044,2.05914,12.48909,12.36475,15.282,20.088,3.59529,9.92261-2.23529,71.09675-9.32848,80.01971-5.50146,6.92071-4.195,5.59048-2.37914,11.32225s6.01086.14125,2.23449,8.66738-6.99109,6.9877-4.47582,10.62278,5.45091,3.21644,2.23448,8.66739-2.93733,7.408-3.63679,9.50467-1.54185,17.19351-1.54185,17.19351-16.35451-2.66-24.88231.55306c0,0,5.87474-14.81606,3.499-17.47262s-5.45095-3.21646-2.93394-6.57073,7.54932-3.0735,2.23791-5.31141-.83048-33.82879-.83048-33.82879c-5.96221-20.79351-1.80755-51.89532,4.22793-84.91358A22.72189,22.72189,0,0,1,708.58933,266.02691Z" transform="translate(-255.16498 -163.27693)" fill="#007dff"/><path d="M811.76742,434.52772l1.15613-26.81931,15.41287-1.47712-2.23123,28.31155a8.98633,8.98633,0,1,1-14.33777-.01512Z" transform="translate(-255.16498 -163.27693)" fill="#ffb6b6"/><path d="M795.656,266.45689l.43192.05081A24.89043,24.89043,0,0,1,815.21483,279.667c4.90734,9.34358,20.43215,72.62753,16.63085,81.31222-3.545,8.0991-3.39836,6.10756-.8222,11.54022s5.97451-.675,3.38892,8.28443-5.97921,7.871-2.99435,11.1315,5.83666,2.44775,3.38892,8.28443-1.90589,7.73785-2.31464,9.91.80336,17.2438.80336,17.2438-16.56414-.4182-24.57761,3.92131c0,0,3.81185-15.47571,1.09787-17.78566s-5.83669-2.44776-3.79766-6.1123,7.06293-4.0686,1.49716-5.56577-5.409-33.40389-5.409-33.40389Z" transform="translate(-255.16498 -163.27693)" fill="#007dff"/><path d="M755.944,232.27693c.65.15,1.30005.28,1.95.38a27.10269,27.10269,0,0,0,6.01.31,28.36587,28.36587,0,1,0-28.98-35.44c-.06.23-.12.45-.17.68A28.3769,28.3769,0,0,0,755.944,232.27693Z" transform="translate(-255.16498 -163.27693)" fill="#ffb6b6"/><path d="M782.12607,228.9293c3.94556-3.08782,4.32855-8.97352,7.69551-12.6837,5.6294-6.20321,8.27423-12.877,5.32534-20.2273-2.60825-6.50109-2.05387-14.49253-7.67133-18.6772,2.759-.99875,3.40824-3.07283.97389-3.11112-1.64161-.02583-7.76141,3.11168-4.8167-.79682s-2.62942-2.36573-2.26072-3.96561,2.73288-2.486,3.77558-1.2178c-3.329-3.90061-10.59879-3.069-12.9609,1.48261-3.318-4.97272-6.84006-8.39442-11.91732-5.23873-4.98668,3.09934-4.92149,6.93057-10.28394,6.00982-2.521-.43283-2.75916,4.33-4.48134,6.2212s-4.23964,3.35489-6.753,2.87991-4.43526-3.60718-3.02689-5.74241l-5.92379,13.51425L727.413,184.448c-3.79356,2.47226-2.54758,8.92337,1.271,11.3568s11.1062-3.191,13.17847.83488c3.2666,6.34619,10.92969,3.1416,16.19238-1.34326,6.38184-5.439,14.08486,11.09834,11.01066,18.8989,3.18975-3.13222,9.09048-.53286,10.7429,3.621s.44076,8.83381-.78418,13.13322Z" transform="translate(-255.16498 -163.27693)" fill="#2f2e41"/><polygon points="472.929 94.03 473.919 95.29 476.579 98.67 486.424 127.75 532.919 93.72 531.589 92.66 524.509 77.61 488.139 75.11 477.259 92.27 472.929 94.03" fill="#3f3d56"/><path d="M777.58934,331.47871c-2.342,25.16331-19.1027,44.17891-37.436,42.47255s-31.29669-23.4885-28.95464-48.65181C730.21752,337.77561,752.25162,340.15717,777.58934,331.47871Z" transform="translate(-255.16498 -163.27693)" fill="#fff"/><path d="M734.27845,301.55153a18.42433,18.42433,0,0,1-.82313,4.404c-1.21294,3.74334-3.56349,6.38043-6.19588,6.68683a4.05069,4.05069,0,0,1-.80494.02741c-2.9445-.19037-5.27671-3.29792-6.06913-7.55928a18.42471,18.42471,0,0,1-.24921-4.47334,18.01122,18.01122,0,0,1,.81154-4.36064c1.327-4.142,4.05041-6.94918,7.00366-6.75824C731.86269,289.77117,734.69159,295.16156,734.27845,301.55153Z" transform="translate(-255.16498 -163.27693)" fill="#fff"/><path d="M729.92948,306.56607a9.64006,9.64006,0,0,1-2.67,6.0763,4.05069,4.05069,0,0,1-.80494.02741c-2.9445-.19037-5.27671-3.29792-6.06913-7.55928a18.42471,18.42471,0,0,1-.24921-4.47334,18.01122,18.01122,0,0,1,.81154-4.36064A9.68139,9.68139,0,0,1,729.92948,306.56607Z" transform="translate(-255.16498 -163.27693)" fill="#3f3d56"/><path d="M763.57379,303.44561c-.39666,6.135-3.63926,10.96518-7.35643,11.122a4.04007,4.04007,0,0,1-.46752-.00378c-3.90253-.25232-6.73148-5.64271-6.31834-12.03262a17.9397,17.9397,0,0,1,.811-4.35185c1.32748-4.1508,4.05093-6.958,7.00423-6.767C761.158,291.66525,763.98693,297.05565,763.57379,303.44561Z" transform="translate(-255.16498 -163.27693)" fill="#fff"/><path d="M758.93475,308.44141a9.64258,9.64258,0,0,1-2.71739,6.12624,4.04007,4.04007,0,0,1-.46752-.00378c-3.90253-.25232-6.73148-5.64271-6.31834-12.03262a17.9397,17.9397,0,0,1,.811-4.35185A9.681,9.681,0,0,1,758.93475,308.44141Z" transform="translate(-255.16498 -163.27693)" fill="#3f3d56"/><circle cx="261.99253" cy="68.10718" r="13.82427" fill="#f2f2f2"/><path d="M518.90935,225.62091a3.80068,3.80068,0,0,0,.07013.9216,1.799,1.799,0,0,0,1.12081,1.51014.83506.83506,0,0,0,.16446.02366c.60812.02693,1.156-.5581,1.414-1.41425a3.801,3.801,0,0,0,.15134-.9118,3.71564,3.71564,0,0,0-.06873-.91245c-.17932-.87916-.67494-1.51587-1.28486-1.54288C519.66871,223.25915,518.9678,224.30121,518.90935,225.62091Z" transform="translate(-255.16498 -163.27693)" fill="#fff"/><path d="M519.68887,226.74672a1.98868,1.98868,0,0,0,.41142,1.30593.83506.83506,0,0,0,.16446.02366c.60812.02693,1.156-.5581,1.414-1.41425a3.801,3.801,0,0,0,.15134-.9118,3.71564,3.71564,0,0,0-.06873-.91245A1.99725,1.99725,0,0,0,519.68887,226.74672Z" transform="translate(-255.16498 -163.27693)" fill="#f2f2f2"/><path d="M512.8591,225.353c-.05611,1.267.50065,2.33024,1.25944,2.4457a.83408.83408,0,0,0,.096.0097c.806.03569,1.50691-1.00637,1.56535-2.326a3.70125,3.70125,0,0,0-.0688-.91064c-.17924-.881-.67486-1.51768-1.28479-1.5447C513.61848,222.9912,512.91755,224.03326,512.8591,225.353Z" transform="translate(-255.16498 -163.27693)" fill="#fff"/><path d="M513.69853,226.48142a1.98922,1.98922,0,0,0,.42,1.31724.83408.83408,0,0,0,.096.0097c.806.03569,1.50691-1.00637,1.56535-2.326a3.70125,3.70125,0,0,0-.0688-.91064A1.99716,1.99716,0,0,0,513.69853,226.48142Z" transform="translate(-255.16498 -163.27693)" fill="#f2f2f2"/><path d="M522.88863,232.52675c-.1554,3.50889-2.3538,6.26161-4.91027,6.14839s-4.50293-3.04951-4.34753-6.55839A10.05783,10.05783,0,0,0,522.88863,232.52675Z" transform="translate(-255.16498 -163.27693)" fill="#fff"/><circle cx="334.99253" cy="211.10718" r="13.82427" fill="#f2f2f2"/><path d="M591.90935,368.62091a3.80068,3.80068,0,0,0,.07013.9216,1.799,1.799,0,0,0,1.12081,1.51014.83506.83506,0,0,0,.16446.02366c.60812.02693,1.156-.5581,1.414-1.41425a3.801,3.801,0,0,0,.15134-.9118,3.71564,3.71564,0,0,0-.06873-.91245c-.17932-.87916-.67494-1.51587-1.28486-1.54288C592.66871,366.25915,591.9678,367.30121,591.90935,368.62091Z" transform="translate(-255.16498 -163.27693)" fill="#fff"/><path d="M592.68887,369.74672a1.98868,1.98868,0,0,0,.41142,1.30593.83506.83506,0,0,0,.16446.02366c.60812.02693,1.156-.5581,1.414-1.41425a3.801,3.801,0,0,0,.15134-.9118,3.71564,3.71564,0,0,0-.06873-.91245A1.99725,1.99725,0,0,0,592.68887,369.74672Z" transform="translate(-255.16498 -163.27693)" fill="#f2f2f2"/><path d="M585.8591,368.353c-.05611,1.267.50065,2.33024,1.25944,2.4457a.83408.83408,0,0,0,.096.0097c.806.03569,1.50691-1.00637,1.56535-2.32605a3.70125,3.70125,0,0,0-.0688-.91064c-.17924-.881-.67486-1.51768-1.28479-1.5447C586.61848,365.9912,585.91755,367.03326,585.8591,368.353Z" transform="translate(-255.16498 -163.27693)" fill="#fff"/><path d="M586.69853,369.48142a1.98922,1.98922,0,0,0,.42,1.31724.83408.83408,0,0,0,.096.0097c.806.03569,1.50691-1.00637,1.56535-2.32605a3.70125,3.70125,0,0,0-.0688-.91064A1.99716,1.99716,0,0,0,586.69853,369.48142Z" transform="translate(-255.16498 -163.27693)" fill="#f2f2f2"/><path d="M595.88863,375.52675c-.1554,3.50889-2.3538,6.26161-4.91027,6.14839s-4.50293-3.04951-4.34753-6.55839A10.05783,10.05783,0,0,0,595.88863,375.52675Z" transform="translate(-255.16498 -163.27693)" fill="#fff"/><circle cx="600.99253" cy="49.10718" r="13.82427" fill="#f2f2f2"/><path d="M857.90935,206.62091a3.80068,3.80068,0,0,0,.07013.9216,1.799,1.799,0,0,0,1.12081,1.51014.83506.83506,0,0,0,.16446.02366c.60812.02693,1.156-.5581,1.414-1.41425a3.801,3.801,0,0,0,.15134-.9118,3.71564,3.71564,0,0,0-.06873-.91245c-.17932-.87916-.67494-1.51587-1.28486-1.54288C858.66871,204.25915,857.9678,205.30121,857.90935,206.62091Z" transform="translate(-255.16498 -163.27693)" fill="#fff"/><path d="M858.68887,207.74672a1.98868,1.98868,0,0,0,.41142,1.30593.83506.83506,0,0,0,.16446.02366c.60812.02693,1.156-.5581,1.414-1.41425a3.801,3.801,0,0,0,.15134-.9118,3.71564,3.71564,0,0,0-.06873-.91245A1.99725,1.99725,0,0,0,858.68887,207.74672Z" transform="translate(-255.16498 -163.27693)" fill="#f2f2f2"/><path d="M851.8591,206.353c-.05611,1.267.50065,2.33024,1.25944,2.4457a.83408.83408,0,0,0,.096.0097c.806.03569,1.50691-1.00637,1.56535-2.326a3.70125,3.70125,0,0,0-.0688-.91064c-.17924-.881-.67486-1.51768-1.28479-1.5447C852.61848,203.9912,851.91755,205.03326,851.8591,206.353Z" transform="translate(-255.16498 -163.27693)" fill="#fff"/><path d="M852.69853,207.48142a1.98922,1.98922,0,0,0,.42,1.31724.83408.83408,0,0,0,.096.0097c.806.03569,1.50691-1.00637,1.56535-2.326a3.70125,3.70125,0,0,0-.0688-.91064A1.99716,1.99716,0,0,0,852.69853,207.48142Z" transform="translate(-255.16498 -163.27693)" fill="#f2f2f2"/><path d="M861.88863,213.52675c-.1554,3.50889-2.3538,6.26161-4.91027,6.14839s-4.50293-3.04951-4.34753-6.55839A10.05783,10.05783,0,0,0,861.88863,213.52675Z" transform="translate(-255.16498 -163.27693)" fill="#fff"/><circle cx="18.99253" cy="416.10718" r="13.82427" fill="#f2f2f2"/><path d="M275.90935,573.62091a3.80068,3.80068,0,0,0,.07013.9216,1.799,1.799,0,0,0,1.12081,1.51014.83506.83506,0,0,0,.16446.02366c.60812.02693,1.156-.5581,1.414-1.41425a3.801,3.801,0,0,0,.15134-.9118,3.71564,3.71564,0,0,0-.06873-.91245c-.17932-.87916-.67494-1.51587-1.28486-1.54288C276.66871,571.25915,275.9678,572.30121,275.90935,573.62091Z" transform="translate(-255.16498 -163.27693)" fill="#fff"/><path d="M276.68887,574.74672a1.98868,1.98868,0,0,0,.41142,1.30593.83506.83506,0,0,0,.16446.02366c.60812.02693,1.156-.5581,1.414-1.41425a3.801,3.801,0,0,0,.15134-.9118,3.71564,3.71564,0,0,0-.06873-.91245A1.99725,1.99725,0,0,0,276.68887,574.74672Z" transform="translate(-255.16498 -163.27693)" fill="#f2f2f2"/><path d="M269.8591,573.353c-.05611,1.267.50065,2.33024,1.25944,2.4457a.83408.83408,0,0,0,.096.0097c.806.03569,1.50691-1.00637,1.56535-2.32605a3.70125,3.70125,0,0,0-.0688-.91064c-.17924-.881-.67486-1.51768-1.28479-1.5447C270.61848,570.9912,269.91755,572.03326,269.8591,573.353Z" transform="translate(-255.16498 -163.27693)" fill="#fff"/><path d="M270.69853,574.48142a1.98922,1.98922,0,0,0,.42,1.31724.83408.83408,0,0,0,.096.0097c.806.03569,1.50691-1.00637,1.56535-2.32605a3.70125,3.70125,0,0,0-.0688-.91064A1.99716,1.99716,0,0,0,270.69853,574.48142Z" transform="translate(-255.16498 -163.27693)" fill="#f2f2f2"/><path d="M279.88863,580.52675c-.1554,3.50889-2.3538,6.26161-4.91027,6.14839s-4.50293-3.04951-4.34753-6.55839A10.05783,10.05783,0,0,0,279.88863,580.52675Z" transform="translate(-255.16498 -163.27693)" fill="#fff"/><circle cx="21.99253" cy="197.10718" r="13.82427" fill="#f2f2f2"/><path d="M278.90935,354.62091a3.80068,3.80068,0,0,0,.07013.9216,1.799,1.799,0,0,0,1.12081,1.51014.83506.83506,0,0,0,.16446.02366c.60812.02693,1.156-.5581,1.414-1.41425a3.801,3.801,0,0,0,.15134-.9118,3.71564,3.71564,0,0,0-.06873-.91245c-.17932-.87916-.67494-1.51587-1.28486-1.54288C279.66871,352.25915,278.9678,353.30121,278.90935,354.62091Z" transform="translate(-255.16498 -163.27693)" fill="#fff"/><path d="M279.68887,355.74672a1.98868,1.98868,0,0,0,.41142,1.30593.83506.83506,0,0,0,.16446.02366c.60812.02693,1.156-.5581,1.414-1.41425a3.801,3.801,0,0,0,.15134-.9118,3.71564,3.71564,0,0,0-.06873-.91245A1.99725,1.99725,0,0,0,279.68887,355.74672Z" transform="translate(-255.16498 -163.27693)" fill="#f2f2f2"/><path d="M272.8591,354.353c-.05611,1.267.50065,2.33024,1.25944,2.4457a.83408.83408,0,0,0,.096.0097c.806.03569,1.50691-1.00637,1.56535-2.32605a3.70125,3.70125,0,0,0-.0688-.91064c-.17924-.881-.67486-1.51768-1.28479-1.5447C273.61848,351.9912,272.91755,353.03326,272.8591,354.353Z" transform="translate(-255.16498 -163.27693)" fill="#fff"/><path d="M273.69853,355.48142a1.98922,1.98922,0,0,0,.42,1.31724.83408.83408,0,0,0,.096.0097c.806.03569,1.50691-1.00637,1.56535-2.32605a3.70125,3.70125,0,0,0-.0688-.91064A1.99716,1.99716,0,0,0,273.69853,355.48142Z" transform="translate(-255.16498 -163.27693)" fill="#f2f2f2"/><path d="M282.88863,361.52675c-.1554,3.50889-2.3538,6.26161-4.91027,6.14839s-4.50293-3.04951-4.34753-6.55839A10.05783,10.05783,0,0,0,282.88863,361.52675Z" transform="translate(-255.16498 -163.27693)" fill="#fff"/></svg>