<svg xmlns="http://www.w3.org/2000/svg" viewBox="0 0 1280 1280"><defs><style>.cls-1{fill:none;}.cls-2{fill:#fff;}</style></defs><g id="Layer_1" data-name="Layer 1"><rect class="cls-1" width="1280" height="1280"/></g><g id="Layer_2" data-name="Layer 2"><path class="cls-2" d="M209.61,785.34c0,183.7,149.45,333.16,333.16,333.16A331.76,331.76,0,0,0,801.45,995.28L735.28,942a247.25,247.25,0,0,1-192.51,91.52c-136.86,0-248.21-111.34-248.21-248.2s111.35-248.2,248.21-248.2a247.61,247.61,0,0,1,190.59,89.19l65.51-54.08a332.29,332.29,0,0,0-256.1-120.07C359.06,452.18,209.61,601.64,209.61,785.34Z"/><path class="cls-2" d="M737.25,161.5a331.84,331.84,0,0,0-258.7,123.21L544.73,338a247.3,247.3,0,0,1,192.52-91.53c136.85,0,248.19,111.34,248.19,248.2S874.1,742.86,737.25,742.86a247.56,247.56,0,0,1-190.58-89.19l-65.54,54.08A332.22,332.22,0,0,0,737.25,827.82c183.7,0,333.14-149.46,333.14-333.16S921,161.5,737.25,161.5Z"/></g></svg>