<svg xmlns="http://www.w3.org/2000/svg" viewBox="0 0 800 400"><title>gr_oss</title><path d="M183,192.2c-.8-3.22-2.17-3.62-3.46-3.62h-.4v13.11h-8.2V168.24h12.22c6.19,0,9.65,2.82,9.65,9a7.43,7.43,0,0,1-5.87,7.63v.17c1.77.64,2.9,1.52,4.1,6.19l2.74,10.45h-8.53Zm-1.85-10a3.46,3.46,0,0,0,3.38-3.62c0-2.33-1.13-3.94-3.54-3.94h-2.25v7.48h2.41Z" style="fill:#3ea9da"/><path d="M197.14,168.24h18.74v6.59h-10.7v6.44h10.13v6.59H205.18V195h11.26v6.59h-19.3Z" style="fill:#3ea9da"/><path d="M220.3,193.65a15.06,15.06,0,0,0,6.91,2c3.14,0,4.18-1.45,4.18-3.62s-1.36-2.81-3.7-3.86l-1.76-.72c-5.07-2.17-6.6-5.15-6.6-9.89,0-6.35,4.67-9.89,11.1-9.89a19.1,19.1,0,0,1,7.72,1.37l-.32,6.59a14,14,0,0,0-6.28-1.69c-2.49,0-3.94,1.13-3.94,3.14,0,1.68.81,2.49,3.54,3.85l3.7,1.85c2.73,1.37,5.15,3.46,5.15,8.45,0,7.31-4.83,11-12,11A29.22,29.22,0,0,1,219.9,201Z" style="fill:#3ea9da"/><path d="M244.18,168.24h18.73v6.59H252.22v6.44h10.13v6.59H252.22V195h11.25v6.59H244.18V168.24Z" style="fill:#3ea9da"/><path d="M283.49,194.53h-9l-2,7.08H264.6l10.13-33.45h9.09l9.72,33.45H285ZM279.23,175h-.08l-3.29,13.11h6Z" style="fill:#3ea9da"/><path d="M308.18,192.2c-.81-3.22-2.17-3.62-3.46-3.62h-.48v13.11H296V168.24h12.22c6.19,0,9.65,2.82,9.65,9a7.43,7.43,0,0,1-5.87,7.63v.17c1.77.64,2.89,1.52,4.1,6.19l2.73,10.45h-8.36Zm-1.85-10a3.45,3.45,0,0,0,3.37-3.62c0-2.33-1.12-3.94-3.53-3.94h-2.25v7.48h2.41Z" style="fill:#3ea9da"/><path d="M344.28,201a23.59,23.59,0,0,1-7.56,1.29c-8.92,0-15.28-5.79-15.28-17.53,0-9.89,5.15-17,15.2-17a17.58,17.58,0,0,1,7.4,1.53l-.41,7.39a11.68,11.68,0,0,0-5.95-1.93c-5.22,0-7.71,3.7-7.71,10.21,0,5.79,2.89,10.14,8,10.14a10.35,10.35,0,0,0,5.87-1.85Z" style="fill:#3ea9da"/><path d="M362.61,188h-6.43v13.59H348V168.16h8.2V181h6.43V168.16h8.2v33.45h-8.2Z" style="fill:#3ea9da"/><path d="M170.77,220l147.78,32.8A120,120,0,1,1,273.93,98L295,64a160,160,0,1,0-84.18,296c81.61,0,148.82-61.11,158.71-140Z" style="fill:#3ea9da"/><rect x="406.81" y="100" width="8" height="200" rx="1.99" ry="1.99" style="fill:#3ea9da"/><path d="M484.9,124.07a30.23,30.23,0,0,1-1.26,9,19.65,19.65,0,0,1-3.73,7,16.5,16.5,0,0,1-6.14,4.49,21.17,21.17,0,0,1-8.5,1.58,21.87,21.87,0,0,1-8.68-1.58,16.08,16.08,0,0,1-6.15-4.51,19.33,19.33,0,0,1-3.67-7,31.49,31.49,0,0,1-1.21-9,28.42,28.42,0,0,1,2.17-11.52,16.69,16.69,0,0,1,6.57-7.7A20.5,20.5,0,0,1,465.36,102a19.77,19.77,0,0,1,10.71,2.73,17.11,17.11,0,0,1,6.59,7.66A27.85,27.85,0,0,1,484.9,124.07Zm-34.1,0a26.08,26.08,0,0,0,1.55,9.44,12.88,12.88,0,0,0,4.77,6.15,16.41,16.41,0,0,0,16.31,0,12.77,12.77,0,0,0,4.71-6.15,26.54,26.54,0,0,0,1.52-9.44q0-8.28-3.47-13t-10.83-4.67a14.51,14.51,0,0,0-8.2,2.14,12.62,12.62,0,0,0-4.79,6.08A25.29,25.29,0,0,0,450.8,124.07Z" style="fill:#3ea9da"/><path d="M505.62,102.72q8.28,0,12.11,3.23t3.82,9.28a14.87,14.87,0,0,1-.89,5.17,11,11,0,0,1-2.89,4.3,13.84,13.84,0,0,1-5.23,2.93,25.19,25.19,0,0,1-7.92,1.07h-5.21v16.85h-5V102.72Zm-.47,4.24h-5.74v17.47h4.65a22.83,22.83,0,0,0,6.84-.88,7.69,7.69,0,0,0,4.12-2.86,9,9,0,0,0,1.38-5.26q0-4.28-2.73-6.37C511.86,107.66,509,107,505.15,107Z" style="fill:#3ea9da"/><path d="M554.37,145.55H530.52V102.72h23.85v4.39H535.5V121h17.78v4.33H535.5v15.85h18.87Z" style="fill:#3ea9da"/><path d="M597.34,145.55H591.6l-23.35-36H568c.06,1,.13,2.05.2,3.27s.15,2.52.19,3.9.08,2.77.08,4.2v24.61h-4.63V102.72h5.71l23.26,35.86H593c0-.69-.09-1.66-.15-2.92s-.11-2.62-.16-4.07-.07-2.81-.07-4.06V102.72h4.68Z" style="fill:#3ea9da"/><path d="M471.92,206.15a11,11,0,0,1-1.88,6.49,11.84,11.84,0,0,1-5.29,4.09,20.8,20.8,0,0,1-8,1.4,41.89,41.89,0,0,1-4.6-.23,32.29,32.29,0,0,1-4-.67,17.32,17.32,0,0,1-3.2-1.09v-4.77a39.09,39.09,0,0,0,5.36,1.68,27.59,27.59,0,0,0,6.62.78,15,15,0,0,0,5.45-.87,7.12,7.12,0,0,0,3.39-2.49,7.35,7.35,0,0,0,.19-7.58,8.7,8.7,0,0,0-3.21-2.7,44.72,44.72,0,0,0-6.11-2.59,30.9,30.9,0,0,1-4.8-2.13,14.55,14.55,0,0,1-3.49-2.62,9.53,9.53,0,0,1-2.12-3.4,12.61,12.61,0,0,1-.72-4.42,9.84,9.84,0,0,1,1.74-5.87,10.86,10.86,0,0,1,4.84-3.75,18.09,18.09,0,0,1,7.1-1.31,29.26,29.26,0,0,1,6.34.65,28,28,0,0,1,5.35,1.72l-1.55,4.28a34.86,34.86,0,0,0-4.91-1.61,22.07,22.07,0,0,0-5.35-.64,11.8,11.8,0,0,0-4.64.8,6.53,6.53,0,0,0-2.89,2.27,6.09,6.09,0,0,0-1,3.49,6.83,6.83,0,0,0,.95,3.75,8.18,8.18,0,0,0,3.05,2.65,39.84,39.84,0,0,0,5.55,2.42,39.36,39.36,0,0,1,6.41,2.91,11.41,11.41,0,0,1,4,3.75A10.46,10.46,0,0,1,471.92,206.15Z" style="fill:#3ea9da"/><path d="M517.8,196.07a30.23,30.23,0,0,1-1.26,9,19.65,19.65,0,0,1-3.73,7,16.5,16.5,0,0,1-6.14,4.49,21.17,21.17,0,0,1-8.5,1.58,21.87,21.87,0,0,1-8.68-1.58,16.08,16.08,0,0,1-6.15-4.51,19.48,19.48,0,0,1-3.67-7,31.49,31.49,0,0,1-1.21-9,28.42,28.42,0,0,1,2.17-11.52,16.69,16.69,0,0,1,6.57-7.7A20.5,20.5,0,0,1,498.26,174,19.77,19.77,0,0,1,509,176.77a17.11,17.11,0,0,1,6.59,7.66A27.85,27.85,0,0,1,517.8,196.07Zm-34.1,0a26.08,26.08,0,0,0,1.55,9.44,12.88,12.88,0,0,0,4.77,6.15,16.41,16.41,0,0,0,16.31,0,12.77,12.77,0,0,0,4.71-6.15,26.54,26.54,0,0,0,1.52-9.44q0-8.28-3.47-13c-2.32-3.11-5.92-4.67-10.83-4.67a14.51,14.51,0,0,0-8.2,2.14,12.62,12.62,0,0,0-4.79,6.08A25.29,25.29,0,0,0,483.7,196.07Z" style="fill:#3ea9da"/><path d="M559.73,174.72v27.71a17.4,17.4,0,0,1-1.83,8.09,13.28,13.28,0,0,1-5.53,5.58,18.93,18.93,0,0,1-9.25,2q-7.95,0-12.09-4.3t-4.14-11.52V174.72h5v27.74c0,3.63,1,6.44,2.88,8.41s4.8,3,8.63,3a13,13,0,0,0,6.43-1.42,8.86,8.86,0,0,0,3.72-4,13.68,13.68,0,0,0,1.22-5.93V174.72Z" style="fill:#3ea9da"/><path d="M582.64,174.72a24.83,24.83,0,0,1,8.71,1.3,10.12,10.12,0,0,1,5.15,4,12.46,12.46,0,0,1,1.69,6.8,11.83,11.83,0,0,1-1.23,5.67,10.52,10.52,0,0,1-3.22,3.67,16.42,16.42,0,0,1-4.25,2.17l11.75,19.25h-5.8L585,199.68h-8.9v17.87h-5V174.72Zm-.3,4.3h-6.29v16.44h6.79q5.25,0,7.72-2.14A7.89,7.89,0,0,0,593,187c0-2.91-.88-5-2.62-6.18S586,179,582.34,179Z" style="fill:#3ea9da"/><path d="M626.41,178.5a15.94,15.94,0,0,0-6.37,1.21,13,13,0,0,0-4.81,3.52,15.81,15.81,0,0,0-3,5.55,26.34,26.34,0,0,0,.63,16.68,13.18,13.18,0,0,0,5,6.14,15.1,15.1,0,0,0,8.39,2.17,29.12,29.12,0,0,0,5.41-.48,48.62,48.62,0,0,0,4.93-1.22v4.34a26.14,26.14,0,0,1-4.92,1.3,38.65,38.65,0,0,1-6.12.42,20.37,20.37,0,0,1-10.92-2.71,16.65,16.65,0,0,1-6.56-7.66,28.86,28.86,0,0,1-2.18-11.69,27.59,27.59,0,0,1,1.36-8.89,19.94,19.94,0,0,1,4-7,17.51,17.51,0,0,1,6.44-4.52,22.54,22.54,0,0,1,8.78-1.6,30,30,0,0,1,6.27.65,23.19,23.19,0,0,1,5.44,1.84l-2,4.22a31.37,31.37,0,0,0-4.49-1.63A19.9,19.9,0,0,0,626.41,178.5Z" style="fill:#3ea9da"/><path d="M669.74,217.55H645.89V174.72h23.85v4.39H650.87V193h17.78v4.33H650.87v15.85h18.87Z" style="fill:#3ea9da"/><path d="M471.92,278.15a11,11,0,0,1-1.88,6.49,11.84,11.84,0,0,1-5.29,4.09,20.8,20.8,0,0,1-8,1.4,41.89,41.89,0,0,1-4.6-.23,32.29,32.29,0,0,1-4-.67,17.32,17.32,0,0,1-3.2-1.09v-4.77a39.09,39.09,0,0,0,5.36,1.68,27.59,27.59,0,0,0,6.62.78,15,15,0,0,0,5.45-.87,7.12,7.12,0,0,0,3.39-2.49,7.35,7.35,0,0,0,.19-7.58,8.7,8.7,0,0,0-3.21-2.7,44.72,44.72,0,0,0-6.11-2.59,30.9,30.9,0,0,1-4.8-2.13,14.55,14.55,0,0,1-3.49-2.62,9.53,9.53,0,0,1-2.12-3.4,12.61,12.61,0,0,1-.72-4.42,9.84,9.84,0,0,1,1.74-5.87,10.86,10.86,0,0,1,4.84-3.75,18.09,18.09,0,0,1,7.1-1.31,29.26,29.26,0,0,1,6.34.65,28,28,0,0,1,5.35,1.72l-1.55,4.28a34.86,34.86,0,0,0-4.91-1.61,22.07,22.07,0,0,0-5.35-.64,11.8,11.8,0,0,0-4.64.8,6.53,6.53,0,0,0-2.89,2.27,6.09,6.09,0,0,0-1,3.49,6.83,6.83,0,0,0,.95,3.75,8.18,8.18,0,0,0,3.05,2.65,39.84,39.84,0,0,0,5.55,2.42,39.36,39.36,0,0,1,6.41,2.91,11.41,11.41,0,0,1,4,3.75A10.46,10.46,0,0,1,471.92,278.15Z" style="fill:#3ea9da"/><path d="M517.8,268.07a30.23,30.23,0,0,1-1.26,9,19.65,19.65,0,0,1-3.73,7,16.5,16.5,0,0,1-6.14,4.49,21.17,21.17,0,0,1-8.5,1.58,21.87,21.87,0,0,1-8.68-1.58,16.08,16.08,0,0,1-6.15-4.51,19.48,19.48,0,0,1-3.67-7,31.49,31.49,0,0,1-1.21-9,28.42,28.42,0,0,1,2.17-11.52,16.69,16.69,0,0,1,6.57-7.7A20.5,20.5,0,0,1,498.26,246,19.77,19.77,0,0,1,509,248.77a17.11,17.11,0,0,1,6.59,7.66A27.85,27.85,0,0,1,517.8,268.07Zm-34.1,0a26.08,26.08,0,0,0,1.55,9.44,12.88,12.88,0,0,0,4.77,6.15,16.41,16.41,0,0,0,16.31,0,12.77,12.77,0,0,0,4.71-6.15,26.54,26.54,0,0,0,1.52-9.44q0-8.28-3.47-13c-2.32-3.11-5.92-4.67-10.83-4.67a14.51,14.51,0,0,0-8.2,2.14,12.62,12.62,0,0,0-4.79,6.08A25.29,25.29,0,0,0,483.7,268.07Z" style="fill:#3ea9da"/><path d="M532.31,289.55h-5V246.72h23.84v4.39H532.31v15.7H550v4.37H532.31Z" style="fill:#3ea9da"/><path d="M571.45,289.55h-5V251.11H553v-4.39h31.9v4.39H571.45Z" style="fill:#3ea9da"/><path d="M640,246.72l-11.45,42.83h-5L615,260.72c-.25-.82-.49-1.64-.72-2.47l-.63-2.38c-.19-.75-.35-1.41-.48-2s-.22-1-.28-1.3c0,.29-.11.72-.22,1.29s-.24,1.22-.41,2-.36,1.53-.59,2.37-.46,1.69-.71,2.55l-8.26,28.8h-5l-11.37-42.83h5.18l6.89,26.86c.23.9.45,1.78.66,2.65s.39,1.72.55,2.54.32,1.62.46,2.4.26,1.54.38,2.29c.1-.77.22-1.56.38-2.39s.33-1.68.51-2.54.39-1.73.62-2.6.46-1.76.72-2.64l7.7-26.57h5.13l8,26.77c.27.92.52,1.83.76,2.73s.44,1.77.63,2.62.35,1.66.5,2.43.27,1.5.39,2.19c.14-1,.3-2,.5-3s.42-2.16.69-3.31.55-2.35.86-3.58l6.89-26.83Z" style="fill:#3ea9da"/><path d="M673.6,289.55,668.33,276H651.16l-5.24,13.59h-5l16.76-43h4.48l16.64,43Zm-6.76-18-5-13.5c-.12-.36-.31-.93-.57-1.73s-.54-1.63-.81-2.49-.5-1.56-.67-2.08c-.2.8-.41,1.59-.63,2.38s-.45,1.53-.66,2.2-.4,1.25-.56,1.72l-5.1,13.5Z" style="fill:#3ea9da"/><path d="M696.25,246.72A24.89,24.89,0,0,1,705,248a10.09,10.09,0,0,1,5.14,4,12.47,12.47,0,0,1,1.7,6.8,11.83,11.83,0,0,1-1.23,5.67,10.54,10.54,0,0,1-3.23,3.67,16.36,16.36,0,0,1-4.24,2.17l11.74,19.25h-5.8l-10.48-17.87h-8.91v17.87h-5V246.72ZM696,251h-6.3v16.44h6.8c3.49,0,6.07-.71,7.72-2.14a7.88,7.88,0,0,0,2.47-6.3q0-4.36-2.62-6.18T696,251Z" style="fill:#3ea9da"/><path d="M745.56,289.55H721.71V246.72h23.85v4.39H726.69V265h17.78v4.33H726.69v15.85h18.87Z" style="fill:#3ea9da"/></svg>