<svg xmlns="http://www.w3.org/2000/svg" viewBox="0 0 1280 1280"><defs><style>.cls-1{fill:#030000;}</style></defs><g id="Layer_2" data-name="Layer 2"><path class="cls-1" d="M542.77,1120c-184.54,0-334.66-150.13-334.66-334.66S358.23,450.68,542.77,450.68A333.77,333.77,0,0,1,801,572.45l-67.82,56a246.15,246.15,0,0,0-190.39-89.79c-136,0-246.71,110.67-246.71,246.7S406.73,1032,542.77,1032a245.75,245.75,0,0,0,192.28-92.13l68.51,55.15A333.28,333.28,0,0,1,542.77,1120Z"/><path class="cls-1" d="M737.25,829.32A333.75,333.75,0,0,1,479,707.55l67.85-56a246.08,246.08,0,0,0,190.38,89.79c136,0,246.69-110.67,246.69-246.7S873.27,248,737.25,248A245.83,245.83,0,0,0,545,340.1l-68.51-55.17A333.34,333.34,0,0,1,737.25,160c184.52,0,334.64,150.13,334.64,334.66S921.77,829.32,737.25,829.32Z"/></g></svg>