<svg xmlns="http://www.w3.org/2000/svg" viewBox="0 0 1280 580.32"><defs><style>.cls-1{fill:#fff;}</style></defs><g id="Layer_1" data-name="Layer 1"><rect width="1280" height="580.32"/></g><g id="Layer_2" data-name="Layer 2"><path class="cls-1" d="M303,372.89a67.89,67.89,0,1,1-.53-87.27l16.85-13.91a89.75,89.75,0,1,0,.7,114.88Z"/><path class="cls-1" d="M393.23,250.75a89.75,89.75,0,0,0-159.06-57l17,13.71a67.9,67.9,0,1,1,.54,87.26l-16.86,13.91a89.74,89.74,0,0,0,158.35-57.86Z"/><path class="cls-1" d="M527.23,325.55c-.39-1-.82-1.46-1.23-1.47a10.83,10.83,0,0,0-1.34.48,50.26,50.26,0,0,1-20.49,4.55,27.31,27.31,0,0,1-11.94-2.54,24.18,24.18,0,0,1-8.94-7.34,33.91,33.91,0,0,1-5.47-11.43A55.24,55.24,0,0,1,476,293a56.3,56.3,0,0,1,1.49-12.78,34.5,34.5,0,0,1,4.89-11.49,27.28,27.28,0,0,1,8.68-8.25,24.62,24.62,0,0,1,12.86-3.21,45.77,45.77,0,0,1,10.34,1.14,43.83,43.83,0,0,1,10.33,4,4.66,4.66,0,0,0,1.09.45c.19,0,.65,0,1-1.16l3.23-8.84a3.66,3.66,0,0,0,.34-1.41c0-.15-.13-.7-1.68-1.48a58.16,58.16,0,0,0-25.78-5.76,44,44,0,0,0-18.41,3.75,40.26,40.26,0,0,0-13.88,10.41A47.49,47.49,0,0,0,461.67,274a60.74,60.74,0,0,0-3.09,19.63,68.62,68.62,0,0,0,2.68,19.59,43,43,0,0,0,8,15.34,36.56,36.56,0,0,0,13.31,10,45.92,45.92,0,0,0,18.84,3.6,64.14,64.14,0,0,0,14-1.44,87.56,87.56,0,0,0,13.34-4.19c1.47-.64,1.64-1.38,1.64-1.87a4.69,4.69,0,0,0-.36-1.61Z"/><path class="cls-1" d="M594.72,332.25a31.24,31.24,0,0,0,6.42-10.95,42.22,42.22,0,0,0,2.18-13.7,47.47,47.47,0,0,0-2-13.93,30.64,30.64,0,0,0-5.88-10.94,26.31,26.31,0,0,0-10-7.12A36.92,36.92,0,0,0,571.12,273,35.41,35.41,0,0,0,557,275.68a29.75,29.75,0,0,0-16.75,18.09,42.16,42.16,0,0,0-2.17,13.69,46.66,46.66,0,0,0,2,13.86,31.35,31.35,0,0,0,5.88,11,26.62,26.62,0,0,0,9.95,7.25,36.17,36.17,0,0,0,14.39,2.64,35.47,35.47,0,0,0,14-2.64A29.88,29.88,0,0,0,594.72,332.25ZM587,316.11a22.69,22.69,0,0,1-2.92,7.44,15.14,15.14,0,0,1-13.68,7.37,15.09,15.09,0,0,1-8.21-2.11A15.47,15.47,0,0,1,557,323.3a24.67,24.67,0,0,1-2.7-7.56,46.55,46.55,0,0,1-.78-8.55,40.85,40.85,0,0,1,.86-8.37,22.49,22.49,0,0,1,2.85-7.3,15.77,15.77,0,0,1,5.43-5.21,16.23,16.23,0,0,1,8.32-2,15.48,15.48,0,0,1,8.2,2,15.17,15.17,0,0,1,5.22,5.37,23.85,23.85,0,0,1,2.69,7.43,44.2,44.2,0,0,1,.79,8.48A41.35,41.35,0,0,1,587,316.11Z"/><path class="cls-1" d="M656.48,273a34,34,0,0,0-11.59,2,36.47,36.47,0,0,0-10.38,5.84L633,282.15l-.21-5.56a1.89,1.89,0,0,0-.54-1.35,3.49,3.49,0,0,0-1.82-.39h-9.06c-1.77,0-2.49.72-2.49,2.49v60.81c0,1.67.68,2.35,2.35,2.35h10.18c1.67,0,2.35-.72,2.35-2.49V293.06l.34-.3a30.63,30.63,0,0,1,8.08-4.91,23.45,23.45,0,0,1,9-2c4.65,0,7.8,1.42,9.39,4.21a20.06,20.06,0,0,1,2.22,9.9v37.95a3.6,3.6,0,0,0,.49,2.11,2.43,2.43,0,0,0,1.85.51h10A2.42,2.42,0,0,0,677,340a3.57,3.57,0,0,0,.49-2.1V297c0-7.36-1.67-13.28-5-17.6S663.92,273,656.48,273Z"/><path class="cls-1" d="M732.4,337.06a18.39,18.39,0,0,0,7.74-15.51,15.32,15.32,0,0,0-3.58-10.49,25.23,25.23,0,0,0-9-6.43L715,299.47c-2.88-1.09-4.79-2.2-5.83-3.41a6.84,6.84,0,0,1-1.65-4.63A7,7,0,0,1,710,286.3c1.63-1.52,4.08-2.29,7.31-2.29a34.12,34.12,0,0,1,7.69,1,55.8,55.8,0,0,1,7.7,2.4,3.34,3.34,0,0,0,1.07.23c.57,0,.83-.21,1-.84l2.35-7.47a9.47,9.47,0,0,0,.25-1.15c0-.45-.78-.9-1.08-1.05a45.1,45.1,0,0,0-10-3.2,54.71,54.71,0,0,0-9.8-.89,35.3,35.3,0,0,0-8.88,1.15,24.82,24.82,0,0,0-7.78,3.48,18.67,18.67,0,0,0-5.49,5.9,16.27,16.27,0,0,0-2.09,8.41,15.89,15.89,0,0,0,3.92,11,24.81,24.81,0,0,0,9.8,6.57l11,4.19a21.9,21.9,0,0,1,6.64,3.67A7,7,0,0,1,726,323a7.22,7.22,0,0,1-3.3,6.27,14,14,0,0,1-8,2.12,35.26,35.26,0,0,1-8.55-1.22,64.1,64.1,0,0,1-9.47-3.21,2.24,2.24,0,0,0-1-.17c-.25,0-.78,0-1.14,1.25l-2.24,7.13a3.35,3.35,0,0,0-.22.94c0,.43.12.92,1.08,1.32a62.79,62.79,0,0,0,10.22,3.43,45.8,45.8,0,0,0,10.85,1.36,37.8,37.8,0,0,0,9.92-1.29A25.51,25.51,0,0,0,732.4,337.06Z"/><path class="cls-1" d="M812.11,337.6V277.06c0-.91-.17-1.55-.48-1.76a3.54,3.54,0,0,0-2-.45h-9.91c-2.18,0-2.49,1.06-2.49,2.21V322l-.34.3a30.78,30.78,0,0,1-7.93,4.9,22.33,22.33,0,0,1-8.91,2c-4.54,0-7.63-1.37-9.17-4.06a20.16,20.16,0,0,1-2.15-9.91V277.06c0-.91-.17-1.55-.47-1.76a3.58,3.58,0,0,0-2-.45h-9.77c-2.31,0-2.63,1.06-2.63,2.21v41.15c0,7.27,1.67,13.17,5,17.53s8.64,6.43,16.08,6.43a33.75,33.75,0,0,0,21.56-7.73L798,333.2l.22,5.41c.09,1,.44,1.89,2.35,1.89h8.93c1.43,0,1.94-.32,2.12-.52S812.11,339.26,812.11,337.6Z"/><path class="cls-1" d="M844.7,242.77l-11.17,1.51a3.37,3.37,0,0,0-1.61.68,2.57,2.57,0,0,0-.37,1.69v91.5c0,1.69.62,2.35,2.21,2.35h10.6c1.07,0,2.06-.3,2.06-2.49V244.84C846.42,243.16,845.74,242.79,844.7,242.77Z"/><path class="cls-1" d="M881.15,334a7.3,7.3,0,0,0-2.69-6.12,9.63,9.63,0,0,0-6.21-2.23A9.4,9.4,0,0,0,866,327.9a7.58,7.58,0,0,0-2.64,6.21,7,7,0,0,0,2.74,6,10.06,10.06,0,0,0,6.16,2.17,9.57,9.57,0,0,0,6.14-2.29A7.25,7.25,0,0,0,881.15,334Z"/><path class="cls-1" d="M968.16,340.43h0a3.51,3.51,0,0,0,.17-1.44V248.05a2.7,2.7,0,0,0-.16-1.16,1.9,1.9,0,0,0-1.08-.21h-4.32c-.67,0-.86.15-.89.19s-.2.26-.2,1.32V326h-1.8L905,248a3,3,0,0,0-1-1.1,2.89,2.89,0,0,0-1.24-.24h-3.48c-.68,0-1.24.11-1.24,1.51V339c0,1.4.56,1.51,1.24,1.51h4.32c.68,0,1.23-.11,1.23-1.51v-76.6h1.8l53.57,76a7.53,7.53,0,0,0,1.59,1.79,2.05,2.05,0,0,0,1.23.31h4.46A2.45,2.45,0,0,0,968.16,340.43Z"/><path class="cls-1" d="M1041.15,340.37h0a1.67,1.67,0,0,0,.13-.83v-3.77a2.63,2.63,0,0,0-.07-.65,3.78,3.78,0,0,0-1.44-.16h-40.2V293.5h34.34a2.16,2.16,0,0,0,1.08-.17,1.7,1.7,0,0,0,.15-.93v-3.35c0-.61-.1-1.09-1.37-1.09h-34.2V252.21h38.66a6.05,6.05,0,0,0,2-.22c.09,0,.21-.26.26-.71l.42-3.5a2.2,2.2,0,0,0,0-1,2,2,0,0,0-.93-.13H993.18c-1,0-1.37.34-1.37,1.37V339a2.59,2.59,0,0,0,.19,1.31,2.51,2.51,0,0,0,1.32.2h46.59A4,4,0,0,0,1041.15,340.37Z"/><path class="cls-1" d="M1052.18,246.68l-.5,0a4.27,4.27,0,0,0,0,.65v4.33a4.68,4.68,0,0,0,0,.49,6,6,0,0,0,.79,0h28.34V339c0,1.4.55,1.51,1.23,1.51h5.16c.67,0,1.23-.11,1.23-1.51V252.21h27.92a6.77,6.77,0,0,0,1.62-.15s.18-.15.32-.83l.7-4.18a1.66,1.66,0,0,0,0-.27,3.41,3.41,0,0,0-1-.1Z"/></g></svg>