<svg xmlns="http://www.w3.org/2000/svg" viewBox="0 0 1280 580.32"><g id="Layer_2" data-name="Layer 2"><path d="M250.75,420.32a90.75,90.75,0,1,1,70-148.48L302.38,287a66.9,66.9,0,1,0,.51,84.46l18.58,14.95A90.37,90.37,0,0,1,250.75,420.32Z"/><path d="M303.49,341.5a90.53,90.53,0,0,1-70-33l18.4-15.18a66.9,66.9,0,1,0-.52-84.46l-18.58-15A90.75,90.75,0,1,1,303.49,341.5Z"/><path d="M531.37,334.67c0,1.21-.75,2.13-2.24,2.79a89.82,89.82,0,0,1-13.52,4.25,65.06,65.06,0,0,1-14.23,1.46,46.69,46.69,0,0,1-19.25-3.69,37.32,37.32,0,0,1-13.67-10.26,43.86,43.86,0,0,1-8.16-15.69,69.42,69.42,0,0,1-2.72-19.87,61.53,61.53,0,0,1,3.14-20,48.2,48.2,0,0,1,9-16A41,41,0,0,1,483.94,247a44.81,44.81,0,0,1,18.83-3.84A59,59,0,0,1,529,249c1.49.75,2.24,1.54,2.24,2.38a4.59,4.59,0,0,1-.42,1.81L527.6,262c-.37,1.22-1,1.82-2,1.82a4.5,4.5,0,0,1-1.54-.56,42.17,42.17,0,0,0-10.11-3.9,44.31,44.31,0,0,0-10.11-1.12,23.41,23.41,0,0,0-12.34,3.07,26.18,26.18,0,0,0-8.37,7.95,33.14,33.14,0,0,0-4.74,11.16A54.86,54.86,0,0,0,477,293a53.64,53.64,0,0,0,1.82,14.57,32.69,32.69,0,0,0,5.29,11.1,23.43,23.43,0,0,0,8.58,7,26.24,26.24,0,0,0,11.51,2.44,49.16,49.16,0,0,0,20.08-4.46,7.89,7.89,0,0,1,1.68-.56c.93,0,1.67.69,2.23,2.09l2.79,7.53A5.72,5.72,0,0,1,531.37,334.67Z"/><path d="M604.32,307.6a42.71,42.71,0,0,1-2.24,14,31.94,31.94,0,0,1-6.62,11.3,30.65,30.65,0,0,1-10.74,7.53,36.28,36.28,0,0,1-14.44,2.72,36.82,36.82,0,0,1-14.78-2.72,27.36,27.36,0,0,1-10.32-7.53,32,32,0,0,1-6.07-11.3,47.27,47.27,0,0,1-2-14.16,42.69,42.69,0,0,1,2.23-14,30.67,30.67,0,0,1,17.29-18.69A36.29,36.29,0,0,1,571.12,272a37.74,37.74,0,0,1,14.78,2.65,27.06,27.06,0,0,1,10.32,7.39,31.44,31.44,0,0,1,6.07,11.3A48,48,0,0,1,604.32,307.6Zm-17.44,0a43.84,43.84,0,0,0-.77-8.29,22.75,22.75,0,0,0-2.58-7.12,14.14,14.14,0,0,0-4.88-5,14.39,14.39,0,0,0-7.67-1.88,15.13,15.13,0,0,0-7.81,1.88,14.71,14.71,0,0,0-5.09,4.88,21.2,21.2,0,0,0-2.72,7,39.36,39.36,0,0,0-.84,8.16,44.17,44.17,0,0,0,.77,8.37,23.53,23.53,0,0,0,2.58,7.25,14.3,14.3,0,0,0,4.88,5.16,14,14,0,0,0,7.67,1.95,14.84,14.84,0,0,0,7.74-1.88,15.11,15.11,0,0,0,5.1-5,21.68,21.68,0,0,0,2.78-7.11A40.1,40.1,0,0,0,586.88,307.6Z"/><path d="M678.52,337.87a4.45,4.45,0,0,1-.7,2.72,3.18,3.18,0,0,1-2.65.91h-10a3.15,3.15,0,0,1-2.64-.91,4.38,4.38,0,0,1-.7-2.72V299.93a19,19,0,0,0-2.09-9.41q-2.1-3.69-8.51-3.7a22.26,22.26,0,0,0-8.65,2,29.07,29.07,0,0,0-7.81,4.74V338q0,3.5-3.35,3.49H621.19q-3.35,0-3.35-3.35V277.34q0-3.49,3.49-3.49h9.06a4.32,4.32,0,0,1,2.38.56,2.65,2.65,0,0,1,1,2.09l.14,3.63a37.39,37.39,0,0,1,10.67-6A34.93,34.93,0,0,1,656.48,272q11.71,0,16.87,6.76T678.52,297Z"/><path d="M741.14,321.55A19.35,19.35,0,0,1,733,337.87a26.47,26.47,0,0,1-8.58,4,38.87,38.87,0,0,1-10.18,1.32,46.15,46.15,0,0,1-11.09-1.39,63,63,0,0,1-10.39-3.49,2.32,2.32,0,0,1-1.67-2.23,4.59,4.59,0,0,1,.27-1.26l2.24-7.11c.37-1.3,1.07-1.95,2.09-1.95a3.09,3.09,0,0,1,1.4.28,62.82,62.82,0,0,0,9.27,3.13,33.79,33.79,0,0,0,8.3,1.19,13,13,0,0,0,7.46-1.95A6.24,6.24,0,0,0,725,323a6.08,6.08,0,0,0-2-4.74,21.22,21.22,0,0,0-6.35-3.49l-11-4.19a25.49,25.49,0,0,1-10.18-6.83A16.75,16.75,0,0,1,691.2,292a17.17,17.17,0,0,1,2.24-8.92,19.44,19.44,0,0,1,5.79-6.21,25.45,25.45,0,0,1,8.09-3.62,35.48,35.48,0,0,1,9.13-1.19,54.89,54.89,0,0,1,10,.91,44.93,44.93,0,0,1,10.25,3.27c1.11.56,1.67,1.21,1.67,2a9.47,9.47,0,0,1-.28,1.39l-2.37,7.53a1.86,1.86,0,0,1-2,1.54,4.47,4.47,0,0,1-1.4-.28,55.2,55.2,0,0,0-7.6-2.38,33.15,33.15,0,0,0-7.46-1c-3,0-5.19.68-6.63,2a6,6,0,0,0-2.16,4.4,5.83,5.83,0,0,0,1.4,4q1.4,1.61,5.44,3.14l12.55,5.16a26,26,0,0,1,9.41,6.69A16.2,16.2,0,0,1,741.14,321.55Z"/><path d="M813.11,337.6a4.59,4.59,0,0,1-.77,3.06,3.79,3.79,0,0,1-2.85.84h-8.93q-3.07,0-3.35-2.79l-.14-3.49a34.54,34.54,0,0,1-22.18,7.95q-11.71,0-16.87-6.83t-5.17-18.13V277.06c0-2.14,1.22-3.21,3.63-3.21h9.77a4.51,4.51,0,0,1,2.58.63,3,3,0,0,1,.9,2.58v38.22a19.07,19.07,0,0,0,2,9.41q2,3.56,8.3,3.56a21.12,21.12,0,0,0,8.51-2,29.22,29.22,0,0,0,7.67-4.74V277.06q0-3.21,3.49-3.21h9.91a4.46,4.46,0,0,1,2.57.63,3,3,0,0,1,.91,2.58Z"/><path d="M847.42,338q0,3.5-3.06,3.49h-10.6q-3.21,0-3.21-3.35v-91.5a3.25,3.25,0,0,1,.7-2.44,4.37,4.37,0,0,1,2.09-.91l11.29-1.53c1.86,0,2.79,1,2.79,3.07Z"/><path d="M882.15,334A8.25,8.25,0,0,1,879,340.8a10.57,10.57,0,0,1-6.76,2.51,11,11,0,0,1-6.76-2.37,8,8,0,0,1-3.14-6.83,8.6,8.6,0,0,1,3-7,10.44,10.44,0,0,1,6.9-2.51,10.73,10.73,0,0,1,6.83,2.44A8.31,8.31,0,0,1,882.15,334Z"/><path d="M969.33,339a3.92,3.92,0,0,1-.35,2,1.74,1.74,0,0,1-1.47.49h-4.46a3.05,3.05,0,0,1-1.81-.49,9.4,9.4,0,0,1-1.82-2l-53.28-75.6h-.28V339c0,1.67-.74,2.51-2.23,2.51h-4.32c-1.49,0-2.24-.84-2.24-2.51v-90.8c0-1.68.75-2.51,2.24-2.51h3.48a3.09,3.09,0,0,1,3.07,1.81L960.4,325h.28V248.19a3,3,0,0,1,.49-2,2.22,2.22,0,0,1,1.6-.48h4.32a2.87,2.87,0,0,1,1.68.41c.37.28.56.94.56,2Z"/><path d="M1042.28,339.55a2.15,2.15,0,0,1-.42,1.53,3,3,0,0,1-1.95.42H993.32a2,2,0,0,1-2.51-2.51V248.05a2.09,2.09,0,0,1,2.37-2.37h46.73c.92,0,1.5.18,1.74.55a2.66,2.66,0,0,1,.21,1.68l-.42,3.49c-.09.83-.4,1.34-.91,1.53a7.31,7.31,0,0,1-2.3.28h-37.66V287h33.2c1.58,0,2.37.7,2.37,2.09v3.35a2.21,2.21,0,0,1-.49,1.68,2.73,2.73,0,0,1-1.74.42h-33.34V334h39.2a3.81,3.81,0,0,1,2,.35,1.73,1.73,0,0,1,.49,1.46Z"/><path d="M1119.69,246a1.21,1.21,0,0,1,.28,1.19l-.7,4.19c-.19.93-.52,1.46-1,1.6a7.12,7.12,0,0,1-2,.21h-26.92V339c0,1.67-.75,2.51-2.23,2.51H1082c-1.49,0-2.23-.84-2.23-2.51V253.21h-27.34A3.29,3.29,0,0,1,1051,253c-.23-.14-.35-.58-.35-1.32v-4.33a2.28,2.28,0,0,1,.28-1.4,2,2,0,0,1,1.26-.27H1118A2.92,2.92,0,0,1,1119.69,246Z"/></g></svg>